<?xml version="1.0" standalone="no"?>
<!DOCTYPE svg PUBLIC "-//W3C//DTD SVG 20010904//EN"
 "http://www.w3.org/TR/2001/REC-SVG-20010904/DTD/svg10.dtd">
<svg version="1.0" xmlns="http://www.w3.org/2000/svg"
 width="512.000000pt" height="512.000000pt" viewBox="0 0 512.000000 512.000000"
 preserveAspectRatio="xMidYMid meet">
<metadata>
Created by potrace 1.16, written by Peter Selinger 2001-2019
</metadata>
<g transform="translate(0.000000,512.000000) scale(0.100000,-0.100000)"
fill="#000000" stroke="none">
<path d="M2525 4301 c-6 -5 -26 -18 -45 -29 -39 -22 -149 -85 -195 -112 -36
-21 -146 -85 -195 -112 -19 -11 -47 -29 -62 -39 -14 -11 -28 -19 -31 -19 -3 0
-44 -23 -91 -51 l-86 -50 0 -207 0 -207 -63 -36 c-34 -20 -134 -80 -222 -134
-88 -54 -188 -114 -222 -134 l-62 -36 -1 -311 c0 -237 -3 -314 -12 -322 -12
-9 -36 -23 -138 -80 -25 -14 -56 -32 -70 -42 -14 -9 -63 -38 -110 -65 -47 -26
-138 -79 -203 -117 l-117 -70 0 -437 0 -437 33 -17 c17 -9 50 -27 72 -41 22
-13 85 -49 140 -81 55 -31 114 -65 130 -75 300 -177 341 -200 358 -200 11 0
59 26 207 112 19 12 55 32 79 46 25 14 68 38 95 55 239 142 229 139 296 96 24
-16 51 -31 190 -109 59 -33 170 -97 293 -171 27 -16 54 -29 61 -29 6 0 43 16
81 36 589 305 524 275 560 256 17 -8 49 -28 72 -43 23 -16 44 -29 48 -29 3 0
22 -11 43 -23 20 -13 57 -35 82 -48 51 -28 226 -130 282 -166 47 -29 73 -29
118 -1 19 12 78 46 130 76 52 30 109 62 125 72 44 26 223 128 275 158 25 13
56 32 70 41 14 9 37 23 53 31 l27 13 -2 440 -3 439 -45 25 c-25 14 -90 51
-145 83 -55 32 -116 67 -135 77 -19 11 -64 38 -100 59 -113 67 -145 85 -162
91 -17 5 -18 31 -18 357 l0 351 -72 44 c-148 90 -255 156 -345 213 -50 32 -94
58 -98 58 -3 0 -26 14 -51 30 l-44 31 0 192 0 192 -43 24 c-23 13 -60 34 -82
46 -22 12 -69 40 -105 62 -36 22 -90 53 -120 69 -30 16 -57 31 -60 34 -3 3
-14 10 -25 16 -11 6 -65 37 -120 69 -55 32 -115 66 -133 76 -35 20 -72 24 -87
10z m85 -253 c56 -34 291 -169 333 -191 20 -10 37 -23 37 -27 0 -5 -51 -36
-112 -70 -62 -35 -138 -77 -168 -95 -30 -18 -76 -44 -103 -58 -54 -31 -32 -38
-205 67 -51 31 -95 56 -97 56 -2 0 -32 18 -66 40 -33 21 -70 42 -81 46 -18 5
-15 10 26 35 25 16 48 29 50 29 3 0 41 23 86 50 45 28 84 50 86 50 3 0 29 15
58 33 28 17 61 37 72 44 28 17 45 16 84 -9z m-465 -474 c44 -26 89 -52 100
-58 11 -6 64 -37 118 -69 l97 -58 0 -244 0 -244 -32 17 c-18 9 -34 20 -36 25
-2 4 -7 7 -12 7 -4 0 -41 20 -81 43 -41 24 -118 70 -171 101 l-98 57 0 245 c0
230 1 244 18 235 9 -5 53 -30 97 -57z m955 -179 c0 -225 -1 -246 -17 -252 -10
-4 -20 -9 -23 -12 -3 -3 -16 -12 -30 -20 -210 -120 -265 -152 -310 -179 -19
-12 -38 -22 -42 -22 -5 0 -8 111 -8 248 0 225 2 248 18 258 9 6 53 30 97 54
44 23 85 46 90 50 6 4 30 19 55 33 25 14 70 39 100 56 30 17 58 31 63 31 4 0
7 -110 7 -245z m300 -196 c47 -28 112 -69 145 -89 33 -21 80 -49 105 -63 l45
-25 3 -280 2 -280 -27 -15 c-16 -8 -73 -40 -128 -72 -55 -32 -136 -78 -180
-103 -44 -25 -91 -53 -105 -62 -14 -10 -47 -30 -73 -45 -27 -15 -70 -39 -95
-54 l-47 -27 -3 -381 -2 -382 -123 -62 c-67 -35 -175 -90 -239 -123 l-117 -60
-38 20 c-21 10 -40 21 -43 24 -3 3 -16 11 -30 19 -84 49 -218 126 -235 135
-11 6 -48 29 -83 50 l-62 39 0 383 0 382 -72 43 c-40 23 -116 67 -168 97 -52
30 -108 62 -125 72 -16 10 -68 39 -115 65 -47 27 -97 57 -112 67 l-28 19 0
257 0 257 66 40 c36 22 99 61 140 88 41 26 77 47 80 47 2 0 22 11 44 25 l40
25 0 -99 c0 -99 0 -100 29 -120 16 -12 32 -21 36 -21 4 0 19 -8 33 -19 15 -10
47 -30 72 -43 79 -45 232 -133 350 -203 63 -37 131 -76 150 -87 19 -11 39 -24
45 -29 15 -15 31 -11 87 23 29 17 96 56 148 86 52 30 109 63 127 73 17 10 50
29 72 43 22 15 43 26 46 26 3 0 38 19 78 43 124 74 171 102 190 109 15 6 17
22 17 123 0 63 4 115 8 115 4 0 46 -23 92 -51z m-1980 -939 c46 -27 85 -50 86
-50 2 0 25 -13 51 -29 27 -15 81 -47 122 -71 61 -35 71 -44 60 -55 -13 -12
-163 -97 -319 -182 -36 -19 -69 -39 -75 -44 -16 -15 -33 -10 -89 26 -30 19
-57 35 -60 35 -2 0 -52 29 -111 65 -58 36 -109 65 -113 65 -4 0 -20 10 -35 23
l-29 22 138 80 c186 108 204 119 244 143 19 12 38 22 41 22 3 0 43 -22 89 -50z
m2392 -9 c18 -10 78 -45 133 -76 55 -32 116 -67 135 -78 19 -11 57 -33 84 -48
26 -14 44 -29 40 -32 -9 -5 -44 -25 -116 -65 -18 -10 -80 -45 -138 -77 -58
-32 -117 -66 -132 -77 -37 -25 -50 -23 -124 22 -36 22 -68 40 -70 40 -2 0 -50
28 -106 63 -57 34 -115 68 -130 76 -16 8 -28 17 -28 20 0 4 17 15 38 26 20 11
71 40 112 65 41 25 86 51 100 58 14 7 57 33 95 56 39 24 71 44 72 45 1 1 17
-7 35 -18z m-2932 -420 c15 -9 100 -59 189 -111 l161 -95 0 -242 c0 -134 -3
-243 -7 -243 -3 0 -27 13 -52 28 -39 25 -115 70 -276 164 -16 10 -45 26 -62
35 l-33 17 0 248 0 248 26 -17 c14 -9 38 -24 54 -32z m976 -446 c-2 -5 -21
-19 -42 -30 -22 -11 -74 -41 -117 -67 -43 -27 -80 -48 -83 -48 -2 0 -23 -12
-45 -26 -53 -33 -126 -74 -133 -74 -3 0 -6 112 -6 248 l0 248 38 20 c34 19 60
33 162 91 19 11 55 31 80 45 25 14 68 39 95 55 l50 29 3 -240 c1 -132 1 -245
-2 -251z m2464 207 l0 -248 -57 -33 c-53 -31 -198 -115 -283 -163 -19 -11 -44
-27 -55 -34 -11 -8 -23 -14 -27 -14 -5 0 -8 111 -8 248 0 279 -9 246 85 297
22 12 58 32 80 45 22 13 63 35 90 51 28 15 77 43 110 62 33 19 61 36 63 36 1
1 2 -111 2 -247z m-899 143 c87 -52 163 -95 169 -95 5 0 10 -4 10 -10 0 -5 5
-10 11 -10 6 0 24 -9 40 -21 l29 -20 0 -240 c0 -131 -3 -239 -6 -239 -5 0 -54
28 -179 102 -16 10 -41 24 -55 30 -14 7 -27 15 -30 19 -3 3 -9 8 -15 10 -5 2
-40 22 -77 44 l-68 39 0 243 c0 134 3 243 6 243 4 0 78 -43 165 -95z"/>
</g>
</svg>
